<?xml version="1.0" encoding="utf-8"?>
<!-- Generator: Adobe Illustrator 27.3.1, SVG Export Plug-In . SVG Version: 6.00 Build 0)  -->
<svg version="1.1" id="Layer_1" xmlns="http://www.w3.org/2000/svg" xmlns:xlink="http://www.w3.org/1999/xlink" x="0px" y="0px"
	 viewBox="0 0 2000 1000" style="enable-background:new 0 0 2000 1000;" xml:space="preserve">
<style type="text/css">
	.st0{fill:#A3A3A3;}
	.st1{fill:#C6ED7D;}
	.st2{fill:#A2A2A2;}
</style>
<g>
	<path class="st0" d="M110.9,636.2V413.6H41.7v-55.2h194.1v55.2h-69.2v222.5H110.9z"/>
	<path class="st0" d="M355.6,347.9h5.8l117.1,288.3h-62.6l-11.3-30h-92.2l-10.9,30h-63L355.6,347.9z M384,554.1l-25.3-72.4
		l-26.1,72.4H384z"/>
	<path class="st1" d="M649,636.9c-186.7,0-186.7-280.5,0-280.5c138.9,0,174.7,155.2,107.4,234.6l36.6,46.7h-61.5l-13.6-15.9
		C698.7,631.5,676.2,636.9,649,636.9z M699.5,518.3l19.5,24.9c28.4-49.8,5.4-130.3-70-130.3c-108.5,0-108.5,168.1,0,168.1
		c12.1,0,22.6-1.9,31.5-5.4l-46.7-57.2H699.5z"/>
	<path class="st1" d="M849.3,559.9c31.9,22.6,66.5,23.3,79.4,22.2c16.3-1.2,30.3-12.8,28.8-28c-1.2-16-13.2-23-28.8-28.4
		c-43.6-16-82.5-38.1-82.5-84.8s32.3-82.5,78.6-84.8c14.4-0.8,33.5-0.8,69.2,11.7l-7,53.7c-30.7-12.4-48.2-12.1-56.8-11.7
		c-19.8,1.2-28.8,15.6-27.6,31.1c1.6,15.6,15.2,22.6,31.1,28c43.2,15.9,80.5,40.8,80.5,85.2c0,46.3-31.9,81.7-84,84.4
		c-15.6,1.2-50.2-0.8-87.9-20.2L849.3,559.9z"/>
	<path class="st1" d="M1071,636.2V358h139.3v55.6h-83.6v55.6h73.1v55.6h-73.1v55.6h88.3v55.6H1071z"/>
	<path class="st0" d="M1277.2,636.2V358h139.3v55.6h-83.6v55.6h73.1v55.6h-73.1v55.6h88.3v55.6H1277.2z"/>
	<path class="st0" d="M1720.7,353.7h17.5v282.4h-56.4l0.4-155.2l-71.2,74.7l-71.2-74.7v155.2h-56.4V353.7h17.9L1611,475.9
		L1720.7,353.7z"/>
</g>
<g>
	<path class="st2" d="M1298.6,784.1c2.2,9.6,8.7,15.3,20.7,15.3c13.4,0,18.5-6.6,18.5-14.5c0-8.2-3.7-13.3-19.7-17.2
		c-15.5-3.8-22.2-8.8-22.2-19.3c0-9.5,7-18.4,22.7-18.4c16.1,0,22.9,9.7,23.8,18.5h-5.9c-1.7-7.8-6.8-13.4-18.3-13.4
		c-10.6,0-16.3,4.9-16.3,12.9c0,8,4.8,11.1,18.3,14.4c20.6,5.1,23.6,13.3,23.6,22c0,10.7-7.8,19.9-24.8,19.9
		c-18.3,0-25-10.6-26.3-20.3H1298.6z"/>
	<path class="st2" d="M1398.9,788.4c0,5.1,0.1,13.2,0.1,15.1h-5c-0.2-1.3-0.3-4.8-0.3-9c-2.2,6.1-7.5,10.3-16.8,10.3
		c-7.5,0-17.1-2.9-17.1-18.7v-34.3h5.1v33c0,7.6,2.4,14.9,12.7,14.9c11.7,0,16.1-6.5,16.1-21.3v-26.6h5.2V788.4z"/>
	<path class="st2" d="M1424,795.9v28.4h-5.2v-59.8c0-4.2,0-8.8-0.1-12.7h5.1c0.2,2,0.2,5.1,0.2,9.3c3.2-6.2,9-10.6,18.4-10.6
		c12.3,0,20.9,10.3,20.9,25.8c0,18.6-10,28.5-22.7,28.5C1431.4,804.8,1426.6,800.8,1424,795.9z M1457.8,776.5c0-12-5.9-21-16.2-21
		c-12.6,0-17.9,7.9-17.9,22c0,13.9,4.1,22.5,17.1,22.5C1451.7,799.9,1457.8,790.8,1457.8,776.5z"/>
	<path class="st2" d="M1484.3,795.9v28.4h-5.2v-59.8c0-4.2,0-8.8-0.1-12.7h5.1c0.2,2,0.2,5.1,0.2,9.3c3.2-6.2,9-10.6,18.4-10.6
		c12.3,0,20.9,10.3,20.9,25.8c0,18.6-10,28.5-22.7,28.5C1491.7,804.8,1486.9,800.8,1484.3,795.9z M1518,776.5c0-12-5.9-21-16.2-21
		c-12.6,0-17.9,7.9-17.9,22c0,13.9,4.1,22.5,17.1,22.5C1512,799.9,1518,790.8,1518,776.5z"/>
	<path class="st2" d="M1582.3,777.6c0,14.4-8,27.2-23.6,27.2c-14.1,0-22.9-11.5-22.9-27.1c0-14.8,8.3-27.1,23.4-27.1
		C1573.1,750.5,1582.3,761.3,1582.3,777.6z M1541.3,777.7c0,12.3,6.7,22.3,17.8,22.3c11.3,0,17.7-9.2,17.7-22.3
		c0-12.2-6.3-22.3-17.9-22.3C1547,755.4,1541.3,765.2,1541.3,777.7z"/>
	<path class="st2" d="M1598,765.9c0-8.7-0.1-12.4-0.1-14.1h5.1c0.1,1.7,0.2,5,0.2,11.6c3-7.8,9.7-12.4,18.2-12.8v5.6
		c-10.9,0.7-18.2,8.2-18.2,20.5v26.9h-5.2V765.9z"/>
	<path class="st2" d="M1629.9,751.8h9.7v-16.2h5.2v16.2h12.4v4.9h-12.4v33.7c0,5.8,1.3,9.1,6.3,9.1c1.6,0,3.8-0.1,5.4-0.6v4.6
		c-1.8,0.7-4.3,0.9-6.5,0.9c-6.7,0-10.4-3.3-10.4-11.6v-36h-9.7V751.8z"/>
	<path class="st2" d="M1739,788.3c-2.5,9.1-8.6,16.5-20.3,16.5c-13.1,0-22.4-9.6-22.4-26.9c0-14.2,7.6-27.3,23-27.3
		c13.3,0,18.7,9.3,19.6,16.6h-5.3c-1.6-6-5.5-11.7-14.4-11.7c-11.1,0-17.3,9.3-17.3,22.3c0,12.3,5.9,22.3,16.8,22.3
		c7.6,0,12.2-3.8,14.9-11.6H1739z"/>
	<path class="st2" d="M1755.2,727.2h5.2v10h-5.2V727.2z M1755.2,751.8h5.2v51.8h-5.2V751.8z"/>
	<path class="st2" d="M1780.3,765.9c0-8.7-0.1-12.4-0.1-14.1h5.1c0.1,1.7,0.2,5,0.2,11.6c3-7.8,9.7-12.4,18.2-12.8v5.6
		c-10.9,0.7-18.2,8.2-18.2,20.5v26.9h-5.2V765.9z"/>
	<path class="st2" d="M1854.5,788.3c-2.5,9.1-8.6,16.5-20.3,16.5c-13.1,0-22.4-9.6-22.4-26.9c0-14.2,7.6-27.3,23-27.3
		c13.3,0,18.7,9.3,19.6,16.6h-5.3c-1.6-6-5.5-11.7-14.4-11.7c-11.1,0-17.3,9.3-17.3,22.3c0,12.3,5.9,22.3,16.8,22.3
		c7.6,0,12.2-3.8,14.9-11.6H1854.5z"/>
	<path class="st2" d="M1869.3,803.6v-76.3h5.2v76.3H1869.3z"/>
	<path class="st2" d="M1895.5,778.3c0.1,13.4,6.9,21.6,16.9,21.6c9.8,0,13.2-5.5,15-9.7h5.3c-2.2,6.8-7.7,14.6-20.6,14.6
		c-15.9,0-22-13.6-22-26.7c0-14.8,7.4-27.6,22.7-27.6c16.1,0,21.2,13.8,21.2,23.5c0,1.5,0,2.9-0.1,4.2H1895.5z M1928.7,773.7
		c-0.1-10.3-5.7-18.3-16-18.3c-10.8,0-15.7,7.5-16.8,18.3H1928.7z"/>
</g>
<g>
	<path class="st1" d="M715.8,258.5c52.5-41.6,118.9-66.6,191.1-66.6s138.6,24.9,191.1,66.6h126.9c-72.9-95.9-188.2-157.9-318-157.9
		c-129.8,0-245.1,62-318,157.9H715.8z"/>
	<path class="st1" d="M1097,741.8c-52.4,41.2-118.3,65.8-190.1,65.8c-71.8,0-137.8-24.6-190.1-65.8H589.5
		c72.9,95.5,188,157.2,317.4,157.2c129.5,0,244.5-61.7,317.4-157.2H1097z"/>
</g>
<g>
	<path class="st1" d="M715.8,258.5c52.5-41.6,118.9-66.6,191.1-66.6s138.6,24.9,191.1,66.6h126.9c-72.9-95.9-188.2-157.9-318-157.9
		c-129.8,0-245.1,62-318,157.9H715.8z"/>
	<path class="st1" d="M1097,741.8c-52.4,41.2-118.3,65.8-190.1,65.8c-71.8,0-137.8-24.6-190.1-65.8H589.5
		c72.9,95.5,188,157.2,317.4,157.2c129.5,0,244.5-61.7,317.4-157.2H1097z"/>
</g>
<g>
	<path class="st0" d="M110.9,636.2V413.6H41.7v-55.2h194.1v55.2h-69.2v222.5H110.9z"/>
	<path class="st0" d="M355.6,347.9h5.8l117.1,288.3h-62.6l-11.3-30h-92.2l-10.9,30h-63L355.6,347.9z M384,554.1l-25.3-72.4
		l-26.1,72.4H384z"/>
	<path class="st1" d="M649,636.9c-186.7,0-186.7-280.5,0-280.5c138.9,0,174.7,155.2,107.4,234.6l36.6,46.7h-61.5l-13.6-15.9
		C698.7,631.5,676.2,636.9,649,636.9z M699.5,518.3l19.5,24.9c28.4-49.8,5.4-130.3-70-130.3c-108.5,0-108.5,168.1,0,168.1
		c12.1,0,22.6-1.9,31.5-5.4l-46.7-57.2H699.5z"/>
	<path class="st1" d="M849.3,559.9c31.9,22.6,66.5,23.3,79.4,22.2c16.3-1.2,30.3-12.8,28.8-28c-1.2-16-13.2-23-28.8-28.4
		c-43.6-16-82.5-38.1-82.5-84.8s32.3-82.5,78.6-84.8c14.4-0.8,33.5-0.8,69.2,11.7l-7,53.7c-30.7-12.4-48.2-12.1-56.8-11.7
		c-19.8,1.2-28.8,15.6-27.6,31.1c1.6,15.6,15.2,22.6,31.1,28c43.2,15.9,80.5,40.8,80.5,85.2c0,46.3-31.9,81.7-84,84.4
		c-15.6,1.2-50.2-0.8-87.9-20.2L849.3,559.9z"/>
	<path class="st1" d="M1071,636.2V358h139.3v55.6h-83.6v55.6h73.1v55.6h-73.1v55.6h88.3v55.6H1071z"/>
	<path class="st0" d="M1277.2,636.2V358h139.3v55.6h-83.6v55.6h73.1v55.6h-73.1v55.6h88.3v55.6H1277.2z"/>
	<path class="st0" d="M1720.7,353.7h17.5v282.4h-56.4l0.4-155.2l-71.2,74.7l-71.2-74.7v155.2h-56.4V353.7h17.9L1611,475.9
		L1720.7,353.7z"/>
</g>
<g>
	<path class="st2" d="M1298.6,784.1c2.2,9.6,8.7,15.3,20.7,15.3c13.4,0,18.5-6.6,18.5-14.5c0-8.2-3.7-13.3-19.7-17.2
		c-15.5-3.8-22.2-8.8-22.2-19.3c0-9.5,7-18.4,22.7-18.4c16.1,0,22.9,9.7,23.8,18.5h-5.9c-1.7-7.8-6.8-13.4-18.3-13.4
		c-10.6,0-16.3,4.9-16.3,12.9c0,8,4.8,11.1,18.3,14.4c20.6,5.1,23.6,13.3,23.6,22c0,10.7-7.8,19.9-24.8,19.9
		c-18.3,0-25-10.6-26.3-20.3H1298.6z"/>
	<path class="st2" d="M1398.9,788.4c0,5.1,0.1,13.2,0.1,15.1h-5c-0.2-1.3-0.3-4.8-0.3-9c-2.2,6.1-7.5,10.3-16.8,10.3
		c-7.5,0-17.1-2.9-17.1-18.7v-34.3h5.1v33c0,7.6,2.4,14.9,12.7,14.9c11.7,0,16.1-6.5,16.1-21.3v-26.6h5.2V788.4z"/>
	<path class="st2" d="M1424,795.9v28.4h-5.2v-59.8c0-4.2,0-8.8-0.1-12.7h5.1c0.2,2,0.2,5.1,0.2,9.3c3.2-6.2,9-10.6,18.4-10.6
		c12.3,0,20.9,10.3,20.9,25.8c0,18.6-10,28.5-22.7,28.5C1431.4,804.8,1426.6,800.8,1424,795.9z M1457.8,776.5c0-12-5.9-21-16.2-21
		c-12.6,0-17.9,7.9-17.9,22c0,13.9,4.1,22.5,17.1,22.5C1451.7,799.9,1457.8,790.8,1457.8,776.5z"/>
	<path class="st2" d="M1484.3,795.9v28.4h-5.2v-59.8c0-4.2,0-8.8-0.1-12.7h5.1c0.2,2,0.2,5.1,0.2,9.3c3.2-6.2,9-10.6,18.4-10.6
		c12.3,0,20.9,10.3,20.9,25.8c0,18.6-10,28.5-22.7,28.5C1491.7,804.8,1486.9,800.8,1484.3,795.9z M1518,776.5c0-12-5.9-21-16.2-21
		c-12.6,0-17.9,7.9-17.9,22c0,13.9,4.1,22.5,17.1,22.5C1512,799.9,1518,790.8,1518,776.5z"/>
	<path class="st2" d="M1582.3,777.6c0,14.4-8,27.2-23.6,27.2c-14.1,0-22.9-11.5-22.9-27.1c0-14.8,8.3-27.1,23.4-27.1
		C1573.1,750.5,1582.3,761.3,1582.3,777.6z M1541.3,777.7c0,12.3,6.7,22.3,17.8,22.3c11.3,0,17.7-9.2,17.7-22.3
		c0-12.2-6.3-22.3-17.9-22.3C1547,755.4,1541.3,765.2,1541.3,777.7z"/>
	<path class="st2" d="M1598,765.9c0-8.7-0.1-12.4-0.1-14.1h5.1c0.1,1.7,0.2,5,0.2,11.6c3-7.8,9.7-12.4,18.2-12.8v5.6
		c-10.9,0.7-18.2,8.2-18.2,20.5v26.9h-5.2V765.9z"/>
	<path class="st2" d="M1629.9,751.8h9.7v-16.2h5.2v16.2h12.4v4.9h-12.4v33.7c0,5.8,1.3,9.1,6.3,9.1c1.6,0,3.8-0.1,5.4-0.6v4.6
		c-1.8,0.7-4.3,0.9-6.5,0.9c-6.7,0-10.4-3.3-10.4-11.6v-36h-9.7V751.8z"/>
	<path class="st2" d="M1739,788.3c-2.5,9.1-8.6,16.5-20.3,16.5c-13.1,0-22.4-9.6-22.4-26.9c0-14.2,7.6-27.3,23-27.3
		c13.3,0,18.7,9.3,19.6,16.6h-5.3c-1.6-6-5.5-11.7-14.4-11.7c-11.1,0-17.3,9.3-17.3,22.3c0,12.3,5.9,22.3,16.8,22.3
		c7.6,0,12.2-3.8,14.9-11.6H1739z"/>
	<path class="st2" d="M1755.2,727.2h5.2v10h-5.2V727.2z M1755.2,751.8h5.2v51.8h-5.2V751.8z"/>
	<path class="st2" d="M1780.3,765.9c0-8.7-0.1-12.4-0.1-14.1h5.1c0.1,1.7,0.2,5,0.2,11.6c3-7.8,9.7-12.4,18.2-12.8v5.6
		c-10.9,0.7-18.2,8.2-18.2,20.5v26.9h-5.2V765.9z"/>
	<path class="st2" d="M1854.5,788.3c-2.5,9.1-8.6,16.5-20.3,16.5c-13.1,0-22.4-9.6-22.4-26.9c0-14.2,7.6-27.3,23-27.3
		c13.3,0,18.7,9.3,19.6,16.6h-5.3c-1.6-6-5.5-11.7-14.4-11.7c-11.1,0-17.3,9.3-17.3,22.3c0,12.3,5.9,22.3,16.8,22.3
		c7.6,0,12.2-3.8,14.9-11.6H1854.5z"/>
	<path class="st2" d="M1869.3,803.6v-76.3h5.2v76.3H1869.3z"/>
	<path class="st2" d="M1895.5,778.3c0.1,13.4,6.9,21.6,16.9,21.6c9.8,0,13.2-5.5,15-9.7h5.3c-2.2,6.8-7.7,14.6-20.6,14.6
		c-15.9,0-22-13.6-22-26.7c0-14.8,7.4-27.6,22.7-27.6c16.1,0,21.2,13.8,21.2,23.5c0,1.5,0,2.9-0.1,4.2H1895.5z M1928.7,773.7
		c-0.1-10.3-5.7-18.3-16-18.3c-10.8,0-15.7,7.5-16.8,18.3H1928.7z"/>
</g>
<g>
	<path class="st1" d="M715.8,258.5c52.5-41.6,118.9-66.6,191.1-66.6s138.6,24.9,191.1,66.6h126.9c-72.9-95.9-188.2-157.9-318-157.9
		c-129.8,0-245.1,62-318,157.9H715.8z"/>
	<path class="st1" d="M1097,741.8c-52.4,41.2-118.3,65.8-190.1,65.8c-71.8,0-137.8-24.6-190.1-65.8H589.5
		c72.9,95.5,188,157.2,317.4,157.2c129.5,0,244.5-61.7,317.4-157.2H1097z"/>
</g>
<g>
	<path class="st1" d="M715.8,258.5c52.5-41.6,118.9-66.6,191.1-66.6s138.6,24.9,191.1,66.6h126.9c-72.9-95.9-188.2-157.9-318-157.9
		c-129.8,0-245.1,62-318,157.9H715.8z"/>
	<path class="st1" d="M1097,741.8c-52.4,41.2-118.3,65.8-190.1,65.8c-71.8,0-137.8-24.6-190.1-65.8H589.5
		c72.9,95.5,188,157.2,317.4,157.2c129.5,0,244.5-61.7,317.4-157.2H1097z"/>
</g>
<g>
</g>
<g>
</g>
<g>
</g>
<g>
</g>
<g>
</g>
<g>
</g>
<g>
</g>
<g>
</g>
<g>
</g>
<g>
</g>
<g>
</g>
</svg>
